HIERARCHY
ROOT pelvis
{
  OFFSET 0 100 0
  CHANNELS 6 Xposition Yposition Zposition Zrotation Xrotation Yrotation
  JOINT pelvis_right_femur
  {
    OFFSET -10.78128 -3.44521 -0.5502486
    CHANNELS 3 Zrotation Xrotation Yrotation
    JOINT right_femur_tibia
    {
      OFFSET -0.8047443 -44.0398 -0.1307829
      CHANNELS 3 Zrotation Xrotation Yrotation
      JOINT right_tibia_foot
      {
        OFFSET 3.006224 -47.83518 -5
        CHANNELS 3 Zrotation Xrotation Yrotation
        End Site
        {
          OFFSET 0 -5 15
        }
      }
    }
  }
  JOINT pelvis_left_femur
  {
    OFFSET 10.78128 -3.44521 -0.5502486
    CHANNELS 3 Zrotation Xrotation Yrotation
    JOINT left_femur_tibia
    {
      OFFSET 0.8047443 -44.0398 -0.1307829
      CHANNELS 3 Zrotation Xrotation Yrotation
      JOINT left_tibia_foot
      {
        OFFSET -4.370144 -48.10324 -4.275266
        CHANNELS 3 Zrotation Xrotation Yrotation
        End Site
        {
          OFFSET 0 -5 15
        }
      }
    }
  }
  JOINT pelvis_spine1
  {
    OFFSET 0 6.468898 -3.129235
    CHANNELS 3 Zrotation Xrotation Yrotation
    JOINT spine1
    {
      OFFSET 0 23.15396 4.99043
      CHANNELS 3 Zrotation Xrotation Yrotation
      JOINT spine2
      {
        OFFSET 0 20.79997 -5.064912
        CHANNELS 3 Zrotation Xrotation Yrotation
        JOINT neck
        {
          OFFSET 0 14.38658 9.616178
          CHANNELS 3 Zrotation Xrotation Yrotation
          End Site
          {
            OFFSET 0 20 0
          }
        }
      }
      JOINT right_manubrium
      {
        OFFSET -5.722621 16.35077 3.967754
        CHANNELS 3 Zrotation Xrotation Yrotation
        JOINT right_clavicle
        {
          OFFSET -13.16364 1.694482 -4.693211
          CHANNELS 3 Zrotation Xrotation Yrotation
          JOINT right_humerus
          {
            OFFSET -28.5034 -0.3100689 -2.792744
            CHANNELS 3 Zrotation Xrotation Yrotation
            JOINT right_radius
            {
              OFFSET -25.15693 0.02248979 -1.271978
              CHANNELS 3 Zrotation Xrotation Yrotation
              End Site
              {
                OFFSET -15 0 0
              }
            }
          }
        }
      }
      JOINT left_manubrium
      {
        OFFSET 5.722621 16.35077 3.967754
        CHANNELS 3 Zrotation Xrotation Yrotation
        JOINT left_clavicle
        {
          OFFSET 13.16364 1.694482 -4.693211
          CHANNELS 3 Zrotation Xrotation Yrotation
          JOINT left_humerus
          {
            OFFSET 29.39168 -1.063119 -2.237045
            CHANNELS 3 Zrotation Xrotation Yrotation
            JOINT left_radius
            {
              OFFSET 24.59957 -0.9528479 0.9047498
              CHANNELS 3 Zrotation Xrotation Yrotation
              End Site
              {
                OFFSET 15 -0 -0
              }
            }
          }
        }
      }
    }
  }
}
MOTION
Frames: 21
Frame Time: 0.0416666666667
285.8973 81.30707 597.093 2.107379 -1.204673 55.06435 -1.451421 14.71888 -2.165457 -0 31.36862 -0 -10.61252 -0.4459232 3.240458 -1.3403 -13.55034 -7.123089 -0 20.30476 -0 -10.04854 -7.778295 4.646931 0.02390373 -4.826719 7.596212 0.1622876 10.55856 -4.763775 1.181014 19.15398 5.858192 0.9531082 -28.64122 8.235052 -2.46632 -26.82711 7.837899 88.80663 18.11222 -11.78479 -0 0 22.02603 -21.8178 13.97189 15.7269 0.7930618 -17.65789 -4.326313 -102.2037 28.4056 40.74961 0 0 -8.959818 -12.56173 -0.3384564 34.19474
292.6264 81.35157 600.0252 2.126314 -1.170918 55.97776 -1.451421 14.71888 -2.165457 -0 31.36862 -0 -10.61252 -0.4459232 3.240458 -1.3403 -13.55034 -7.123089 -0 20.30476 -0 -10.04854 -7.778295 4.646931 0.02390373 -4.826719 7.596212 0.1622876 10.55856 -4.763775 1.181014 19.15398 5.858192 0.9531082 -28.64122 8.235052 -2.46632 -26.82711 7.837899 88.80663 18.11222 -11.78479 -0 0 22.02603 -21.8178 13.97189 15.7269 0.7930618 -17.65789 -4.326313 -102.2037 28.4056 40.74961 0 0 -8.959818 -12.56173 -0.3384564 34.19474
299.4014 81.39607 602.8497 2.144708 -1.136865 56.89115 -1.451421 14.71888 -2.165457 -0 31.36862 -0 -10.61252 -0.4459232 3.240458 -1.3403 -13.55034 -7.123089 -0 20.30476 -0 -10.04854 -7.778295 4.646931 0.02390373 -4.826719 7.596212 0.1622876 10.55856 -4.763775 1.181014 19.15398 5.858192 0.9531082 -28.64122 8.235052 -2.46632 -26.82711 7.837899 88.80663 18.11222 -11.78479 -0 0 22.02603 -21.8178 13.97189 15.7269 0.7930618 -17.65789 -4.326313 -102.2037 28.4056 40.74961 0 0 -8.959818 -12.56173 -0.3384564 34.19474
306.2206 81.44056 605.5657 2.162557 -1.102523 57.80452 -1.451421 14.71888 -2.165457 -0 31.36862 -0 -10.61252 -0.4459232 3.240458 -1.3403 -13.55034 -7.123089 -0 20.30476 -0 -10.04854 -7.778295 4.646931 0.02390373 -4.826719 7.596212 0.1622876 10.55856 -4.763775 1.181014 19.15398 5.858192 0.9531082 -28.64122 8.235052 -2.46632 -26.82711 7.837899 88.80663 18.11222 -11.78479 -0 0 22.02603 -21.8178 13.97189 15.7269 0.7930618 -17.65789 -4.326313 -102.2037 28.4056 40.74961 0 0 -8.959818 -12.56173 -0.3384564 34.19474
313.0823 81.48506 608.1727 2.179856 -1.0679 58.71787 -1.451421 14.71888 -2.165457 -0 31.36862 -0 -10.61252 -0.4459232 3.240458 -1.3403 -13.55034 -7.123089 -0 20.30476 -0 -10.04854 -7.778295 4.646931 0.02390373 -4.826719 7.596212 0.1622876 10.55856 -4.763775 1.181014 19.15398 5.858192 0.9531082 -28.64122 8.235052 -2.46632 -26.82711 7.837899 88.80663 18.11222 -11.78479 -0 0 22.02603 -21.8178 13.97189 15.7269 0.7930618 -17.65789 -4.326313 -102.2037 28.4056 40.74961 0 0 -8.959818 -12.56173 -0.3384564 34.19474
319.9846 81.52956 610.6699 2.1966 -1.033007 59.6312 -1.451421 14.71888 -2.165457 -0 31.36862 -0 -10.61252 -0.4459232 3.240458 -1.3403 -13.55034 -7.123089 -0 20.30476 -0 -10.04854 -7.778295 4.646931 0.02390373 -4.826719 7.596212 0.1622876 10.55856 -4.763775 1.181014 19.15398 5.858192 0.9531082 -28.64122 8.235052 -2.46632 -26.82711 7.837899 88.80663 18.11222 -11.78479 -0 0 22.02603 -21.8178 13.97189 15.7269 0.7930618 -17.65789 -4.326313 -102.2037 28.4056 40.74961 0 0 -8.959818 -12.56173 -0.3384564 34.19474
326.9259 81.57406 613.0567 2.212785 -0.9978512 60.5445 -1.451421 14.71888 -2.165457 -0 31.36862 -0 -10.61252 -0.4459232 3.240458 -1.3403 -13.55034 -7.123089 -0 20.30476 -0 -10.04854 -7.778295 4.646931 0.02390373 -4.826719 7.596212 0.1622876 10.55856 -4.763775 1.181014 19.15398 5.858192 0.9531082 -28.64122 8.235052 -2.46632 -26.82711 7.837899 88.80663 18.11222 -11.78479 -0 0 22.02603 -21.8178 13.97189 15.7269 0.7930618 -17.65789 -4.326313 -102.2037 28.4056 40.74961 0 0 -8.959818 -12.56173 -0.3384564 34.19474
333.9044 81.61855 615.3325 2.228408 -0.9624419 61.45779 -1.451421 14.71888 -2.165457 -0 31.36862 -0 -10.61252 -0.4459232 3.240458 -1.3403 -13.55034 -7.123089 -0 20.30476 -0 -10.04854 -7.778295 4.646931 0.02390373 -4.826719 7.596212 0.1622876 10.55856 -4.763775 1.181014 19.15398 5.858192 0.9531082 -28.64122 8.235052 -2.46632 -26.82711 7.837899 88.80663 18.11222 -11.78479 -0 0 22.02603 -21.8178 13.97189 15.7269 0.7930618 -17.65789 -4.326313 -102.2037 28.4056 40.74961 0 0 -8.959818 -12.56173 -0.3384564 34.19474
340.9183 81.66305 617.4968 2.243465 -0.9267881 62.37106 -1.451421 14.71888 -2.165457 -0 31.36862 -0 -10.61252 -0.4459232 3.240458 -1.3403 -13.55034 -7.123089 -0 20.30476 -0 -10.04854 -7.778295 4.646931 0.02390373 -4.826719 7.596212 0.1622876 10.55856 -4.763775 1.181014 19.15398 5.858192 0.9531082 -28.64122 8.235052 -2.46632 -26.82711 7.837899 88.80663 18.11222 -11.78479 -0 0 22.02603 -21.8178 13.97189 15.7269 0.7930618 -17.65789 -4.326313 -102.2037 28.4056 40.74961 0 0 -8.959818 -12.56173 -0.3384564 34.19474
347.9658 81.70755 619.5488 2.257951 -0.8908989 63.28431 -1.451421 14.71888 -2.165457 -0 31.36862 -0 -10.61252 -0.4459232 3.240458 -1.3403 -13.55034 -7.123089 -0 20.30476 -0 -10.04854 -7.778295 4.646931 0.02390373 -4.826719 7.596212 0.1622876 10.55856 -4.763775 1.181014 19.15398 5.858192 0.9531082 -28.64122 8.235052 -2.46632 -26.82711 7.837899 88.80663 18.11222 -11.78479 -0 0 22.02603 -21.8178 13.97189 15.7269 0.7930618 -17.65789 -4.326313 -102.2037 28.4056 40.74961 0 0 -8.959818 -12.56173 -0.3384564 34.19474
355.0451 81.75205 621.4883 2.271863 -0.8547834 64.19754 -1.451421 14.71888 -2.165457 -0 31.36862 -0 -10.61252 -0.4459232 3.240458 -1.3403 -13.55034 -7.123089 -0 20.30476 -0 -10.04854 -7.778295 4.646931 0.02390373 -4.826719 7.596212 0.1622876 10.55856 -4.763775 1.181014 19.15398 5.858192 0.9531082 -28.64122 8.235052 -2.46632 -26.82711 7.837899 88.80663 18.11222 -11.78479 -0 0 22.02603 -21.8178 13.97189 15.7269 0.7930618 -17.65789 -4.326313 -102.2037 28.4056 40.74961 0 0 -8.959818 -12.56173 -0.3384564 34.19474
362.1545 81.79654 623.3145 2.285197 -0.8184508 65.11075 -1.451421 14.71888 -2.165457 -0 31.36862 -0 -10.61252 -0.4459232 3.240458 -1.3403 -13.55034 -7.123089 -0 20.30476 -0 -10.04854 -7.778295 4.646931 0.02390373 -4.826719 7.596212 0.1622876 10.55856 -4.763775 1.181014 19.15398 5.858192 0.9531082 -28.64122 8.235052 -2.46632 -26.82711 7.837899 88.80663 18.11222 -11.78479 -0 0 22.02603 -21.8178 13.97189 15.7269 0.7930618 -17.65789 -4.326313 -102.2037 28.4056 40.74961 0 0 -8.959818 -12.56173 -0.3384564 34.19474
369.2921 81.84104 625.0272 2.29795 -0.7819103 66.02395 -1.451421 14.71888 -2.165457 -0 31.36862 -0 -10.61252 -0.4459232 3.240458 -1.3403 -13.55034 -7.123089 -0 20.30476 -0 -10.04854 -7.778295 4.646931 0.02390373 -4.826719 7.596212 0.1622876 10.55856 -4.763775 1.181014 19.15398 5.858192 0.9531082 -28.64122 8.235052 -2.46632 -26.82711 7.837899 88.80663 18.11222 -11.78479 -0 0 22.02603 -21.8178 13.97189 15.7269 0.7930618 -17.65789 -4.326313 -102.2037 28.4056 40.74961 0 0 -8.959818 -12.56173 -0.3384564 34.19474
376.4561 81.88554 626.6257 2.310119 -0.7451712 66.93713 -1.451421 14.71888 -2.165457 -0 31.36862 -0 -10.61252 -0.4459232 3.240458 -1.3403 -13.55034 -7.123089 -0 20.30476 -0 -10.04854 -7.778295 4.646931 0.02390373 -4.826719 7.596212 0.1622876 10.55856 -4.763775 1.181014 19.15398 5.858192 0.9531082 -28.64122 8.235052 -2.46632 -26.82711 7.837899 88.80663 18.11222 -11.78479 -0 0 22.02603 -21.8178 13.97189 15.7269 0.7930618 -17.65789 -4.326313 -102.2037 28.4056 40.74961 0 0 -8.959818 -12.56173 -0.3384564 34.19474
383.6447 81.93004 628.1099 2.321702 -0.7082429 67.8503 -1.451421 14.71888 -2.165457 -0 31.36862 -0 -10.61252 -0.4459232 3.240458 -1.3403 -13.55034 -7.123089 -0 20.30476 -0 -10.04854 -7.778295 4.646931 0.02390373 -4.826719 7.596212 0.1622876 10.55856 -4.763775 1.181014 19.15398 5.858192 0.9531082 -28.64122 8.235052 -2.46632 -26.82711 7.837899 88.80663 18.11222 -11.78479 -0 0 22.02603 -21.8178 13.97189 15.7269 0.7930618 -17.65789 -4.326313 -102.2037 28.4056 40.74961 0 0 -8.959818 -12.56173 -0.3384564 34.19474
390.856 81.97453 629.4792 2.332693 -0.6711347 68.76345 -1.451421 14.71888 -2.165457 -0 31.36862 -0 -10.61252 -0.4459232 3.240458 -1.3403 -13.55034 -7.123089 -0 20.30476 -0 -10.04854 -7.778295 4.646931 0.02390373 -4.826719 7.596212 0.1622876 10.55856 -4.763775 1.181014 19.15398 5.858192 0.9531082 -28.64122 8.235052 -2.46632 -26.82711 7.837899 88.80663 18.11222 -11.78479 -0 0 22.02603 -21.8178 13.97189 15.7269 0.7930618 -17.65789 -4.326313 -102.2037 28.4056 40.74961 0 0 -8.959818 -12.56173 -0.3384564 34.19474
398.0883 82.01903 630.7333 2.343092 -0.633856 69.67659 -1.451421 14.71888 -2.165457 -0 31.36862 -0 -10.61252 -0.4459232 3.240458 -1.3403 -13.55034 -7.123089 -0 20.30476 -0 -10.04854 -7.778295 4.646931 0.02390373 -4.826719 7.596212 0.1622876 10.55856 -4.763775 1.181014 19.15398 5.858192 0.9531082 -28.64122 8.235052 -2.46632 -26.82711 7.837899 88.80663 18.11222 -11.78479 -0 0 22.02603 -21.8178 13.97189 15.7269 0.7930618 -17.65789 -4.326313 -102.2037 28.4056 40.74961 0 0 -8.959818 -12.56173 -0.3384564 34.19474
405.3397 82.06353 631.8719 2.352896 -0.5964163 70.58971 -1.451421 14.71888 -2.165457 -0 31.36862 -0 -10.61252 -0.4459232 3.240458 -1.3403 -13.55034 -7.123089 -0 20.30476 -0 -10.04854 -7.778295 4.646931 0.02390373 -4.826719 7.596212 0.1622876 10.55856 -4.763775 1.181014 19.15398 5.858192 0.9531082 -28.64122 8.235052 -2.46632 -26.82711 7.837899 88.80663 18.11222 -11.78479 -0 0 22.02603 -21.8178 13.97189 15.7269 0.7930618 -17.65789 -4.326313 -102.2037 28.4056 40.74961 0 0 -8.959818 -12.56173 -0.3384564 34.19474
412.6082 82.10803 632.8947 2.362101 -0.5588252 71.50282 -1.451421 14.71888 -2.165457 -0 31.36862 -0 -10.61252 -0.4459232 3.240458 -1.3403 -13.55034 -7.123089 -0 20.30476 -0 -10.04854 -7.778295 4.646931 0.02390373 -4.826719 7.596212 0.1622876 10.55856 -4.763775 1.181014 19.15398 5.858192 0.9531082 -28.64122 8.235052 -2.46632 -26.82711 7.837899 88.80663 18.11222 -11.78479 -0 0 22.02603 -21.8178 13.97189 15.7269 0.7930618 -17.65789 -4.326313 -102.2037 28.4056 40.74961 0 0 -8.959818 -12.56173 -0.3384564 34.19474
419.8922 82.15252 633.8014 2.370706 -0.5210922 72.41592 -1.451421 14.71888 -2.165457 -0 31.36862 -0 -10.61252 -0.4459232 3.240458 -1.3403 -13.55034 -7.123089 -0 20.30476 -0 -10.04854 -7.778295 4.646931 0.02390373 -4.826719 7.596212 0.1622876 10.55856 -4.763775 1.181014 19.15398 5.858192 0.9531082 -28.64122 8.235052 -2.46632 -26.82711 7.837899 88.80663 18.11222 -11.78479 -0 0 22.02603 -21.8178 13.97189 15.7269 0.7930618 -17.65789 -4.326313 -102.2037 28.4056 40.74961 0 0 -8.959818 -12.56173 -0.3384564 34.19474
427.1897 82.19702 634.5919 2.378709 -0.4832268 73.32901 -1.451421 14.71888 -2.165457 -0 31.36862 -0 -10.61252 -0.4459232 3.240458 -1.3403 -13.55034 -7.123089 -0 20.30476 -0 -10.04854 -7.778295 4.646931 0.02390373 -4.826719 7.596212 0.1622876 10.55856 -4.763775 1.181014 19.15398 5.858192 0.9531082 -28.64122 8.235052 -2.46632 -26.82711 7.837899 88.80663 18.11222 -11.78479 -0 0 22.02603 -21.8178 13.97189 15.7269 0.7930618 -17.65789 -4.326313 -102.2037 28.4056 40.74961 0 0 -8.959818 -12.56173 -0.3384564 34.19474
